<svg width="107" height="12" viewBox="0 0 107 12" fill="none" xmlns="http://www.w3.org/2000/svg">
<g clip-path="url(#clip0_826_22976)">
<g clip-path="url(#clip1_826_22976)">
<mask id="mask0_826_22976" style="mask-type:luminance" maskUnits="userSpaceOnUse" x="-1" y="0" width="107" height="12">
<path d="M105.876 0H-0.00683594V12H105.876V0Z" fill="white"/>
</mask>
<g mask="url(#mask0_826_22976)">
<path d="M21.5576 8.32035L16.3814 0.197266H13.583V11.7911H15.9607V3.66804L21.1369 11.7911H23.9353V0.197266H21.5576V8.32035Z" fill="#181818"/>
<path d="M25.9072 2.43111H29.7665V11.7911H32.2357V2.43111H36.0949V0.197266H25.9072V2.43111Z" fill="#181818"/>
<path d="M45.9428 4.83113H40.5289V0.215727H38.0596V11.8096H40.5289V7.06496H45.9428V11.8096H48.4122V0.197266H45.9428V4.83113Z" fill="#181818"/>
<path d="M53.9039 2.4312H56.9399C58.1471 2.4312 58.7872 2.87428 58.7872 3.72351C58.7872 4.57274 58.1471 5.01584 56.9399 5.01584H53.9039V2.4312ZM61.2566 3.74198C61.2566 1.54505 59.6651 0.21582 57.0498 0.21582H51.4346V11.8097H53.9039V7.26813H56.6474L59.1164 11.8097H61.8419L59.1164 6.91735C60.4882 6.38196 61.2566 5.27429 61.2566 3.74198Z" fill="#181818"/>
<path d="M68.7999 9.67384C66.8611 9.67384 65.6724 8.28922 65.6724 6.01845C65.6724 3.71077 66.8611 2.32616 68.7999 2.32616C70.7203 2.32616 71.891 3.71077 71.891 6.01845C71.891 8.28922 70.7203 9.67384 68.7999 9.67384ZM68.7999 0C65.4894 0 63.1299 2.49231 63.1299 6.01845C63.1299 9.50768 65.471 12 68.7999 12C72.092 12 74.4331 9.50768 74.4331 6.01845C74.4331 2.49231 72.1104 0 68.7999 0Z" fill="#181818"/>
<path d="M82.2407 5.34803H79.2044V2.43111H82.2407C83.4479 2.43111 84.088 2.92957 84.088 3.88958C84.088 4.84958 83.4662 5.34803 82.2407 5.34803ZM82.3506 0.197266H76.7354V11.7911H79.2044V7.60035H82.3506C84.9659 7.60035 86.5574 6.21574 86.5574 3.90803C86.5574 1.60034 84.9659 0.197266 82.3506 0.197266Z" fill="#181818"/>
<path d="M103.251 7.90155C102.83 9.02768 101.971 9.67384 100.8 9.67384C98.8611 9.67384 97.6724 8.28922 97.6724 6.01845C97.6724 3.71077 98.8611 2.32616 100.8 2.32616C101.971 2.32616 102.812 2.97231 103.251 4.09845H105.867C105.208 1.60616 103.288 0 100.8 0C97.4894 0 95.1299 2.49231 95.1299 6.01845C95.1299 9.50768 97.471 12 100.8 12C103.306 12 105.226 10.3754 105.867 7.90155H103.251Z" fill="#181818"/>
<path d="M87.5557 0.197266L92.1464 11.7911H94.6522L90.0614 0.197266H87.5557Z" fill="#181818"/>
<path d="M4.32794 7.21264L5.90091 3.13265L7.47389 7.21264H4.32794ZM4.58403 0.197266L-0.00683594 11.8096H2.5538L3.4866 9.37264H8.27864L9.21145 11.8096H11.7721L7.19954 0.197266H4.58403Z" fill="#181818"/>
</g>
</g>
</g>
<defs>
<clipPath id="clip0_826_22976">
<rect width="106.13" height="12" fill="white" transform="translate(-0.00976562)"/>
</clipPath>
<clipPath id="clip1_826_22976">
<rect width="106.125" height="12" fill="white" transform="translate(-0.00683594)"/>
</clipPath>
</defs>
</svg>
