<svg width="400" height="400" viewBox="0 0 400 400" fill="none" xmlns="http://www.w3.org/2000/svg">
<rect width="400" height="400" fill="black"/>
<path d="M302.677 178.074C308.011 161.778 306.233 143.704 297.64 128.889C284.603 106.074 258.233 94.5185 232.455 99.8519C221.196 87.1111 204.603 80 187.418 80C161.048 80 137.937 96.8889 129.64 121.778C112.751 125.333 98.2329 135.704 89.6403 150.815C76.6032 173.63 79.5662 202.074 97.0477 221.63C91.7143 238.222 93.7884 256 102.381 270.815C115.418 293.63 141.788 305.481 167.566 299.852C179.122 312.593 195.418 320 212.603 320C238.974 320 262.085 303.111 270.381 278.222C287.27 274.667 301.788 264.296 310.381 249.185C323.418 226.37 320.455 197.63 302.677 178.074ZM212.603 304.296C201.937 304.296 191.862 300.741 183.862 293.926C184.159 293.63 185.048 293.333 185.344 293.037L233.048 265.481C235.418 264 236.9 261.63 236.9 258.667V191.407L257.048 202.963C257.344 202.963 257.344 203.259 257.344 203.556V259.259C257.64 284.148 237.492 304.296 212.603 304.296ZM116.011 263.111C110.677 253.926 108.9 243.259 110.677 232.889C110.974 233.185 111.566 233.481 112.159 233.778L159.862 261.333C162.233 262.815 165.196 262.815 167.566 261.333L225.937 227.556V250.963C225.937 251.259 225.937 251.556 225.64 251.556L177.344 279.407C156.011 291.852 128.455 284.444 116.011 263.111ZM103.566 158.815C108.9 149.63 117.196 142.815 126.974 138.963V195.852C126.974 198.519 128.455 201.185 130.825 202.667L189.196 236.444L169.048 248C168.751 248 168.455 248.296 168.455 248L120.159 220.148C98.2329 207.704 91.1218 180.148 103.566 158.815ZM269.492 197.333L211.122 163.556L231.27 152C231.566 152 231.862 151.704 231.862 152L280.159 179.852C301.788 192.296 308.9 219.852 296.455 241.185C291.122 250.37 282.825 257.185 273.048 260.741V204.148C273.344 201.481 271.862 198.815 269.492 197.333ZM289.344 167.111C289.048 166.815 288.455 166.519 287.862 166.222L240.159 138.667C237.788 137.185 234.825 137.185 232.455 138.667L174.085 172.444V149.037C174.085 148.741 174.085 148.444 174.381 148.444L222.677 120.593C244.307 108.148 271.566 115.556 284.011 137.185C289.344 146.074 291.122 156.741 289.344 167.111ZM163.122 208.593L142.974 197.037C142.677 197.037 142.677 196.741 142.677 196.444V140.741C142.677 115.852 162.825 95.7037 187.714 95.7037C198.381 95.7037 208.455 99.2593 216.455 106.074C216.159 106.37 215.566 106.667 214.974 106.963L167.27 134.519C164.9 136 163.418 138.37 163.418 141.333V208.593H163.122ZM174.085 184.889L200.159 169.778L226.233 184.889V214.815L200.159 229.926L174.085 214.815V184.889Z" fill="white"/>
</svg>
