<svg width="92" height="32" viewBox="0 0 92 32" fill="none" xmlns="http://www.w3.org/2000/svg">
<g clip-path="url(#clip0_826_22937)">
<g clip-path="url(#clip1_826_22937)">
<mask id="mask0_826_22937" style="mask-type:luminance" maskUnits="userSpaceOnUse" x="0" y="0" width="91" height="32">
<path d="M90.3622 0.644775H0.853516V31.6745H90.3622V0.644775Z" fill="white"/>
</mask>
<g mask="url(#mask0_826_22937)">
<path d="M2.73895 1.98314L19.9063 0.694367C21.9903 0.496095 22.5361 0.644799 23.8757 1.58659L29.3832 5.45291C30.2763 6.0973 30.5739 6.29557 30.5739 7.0391V28.2047C30.5739 29.5431 30.0779 30.3361 28.3908 30.4352L8.44488 31.6249C7.15484 31.6745 6.55944 31.5257 5.91443 30.6831L1.89547 25.4785C1.15122 24.4871 0.853516 23.7932 0.853516 22.9505V4.11457C0.853516 3.02407 1.34968 2.08228 2.73895 1.98314Z" fill="white"/>
<path fill-rule="evenodd" clip-rule="evenodd" d="M19.9063 0.69435L2.73895 1.98312C1.34968 2.08226 0.853516 3.02405 0.853516 4.11455V22.9504C0.853516 23.7931 1.15122 24.5366 1.89547 25.4785L5.91443 30.7327C6.55944 31.5753 7.20446 31.7736 8.44488 31.6744L28.3908 30.4848C30.0779 30.3857 30.5739 29.5926 30.5739 28.2543V7.03908C30.5739 6.34512 30.3259 6.14685 29.4824 5.55203C29.4328 5.50246 29.3832 5.50246 29.3335 5.4529L23.8757 1.63614C22.5856 0.644782 22.0399 0.545646 19.9063 0.69435ZM8.89144 6.6921C7.25408 6.79124 6.90676 6.84081 5.96404 6.04771L3.63205 4.21369C3.38397 3.96585 3.48321 3.66844 4.12823 3.61887L20.6507 2.42923C22.0399 2.3301 22.7345 2.77621 23.2803 3.22233L26.1085 5.25462C26.2573 5.30419 26.555 5.65117 26.1581 5.65117L9.0899 6.6921H8.89144ZM7.006 28.056V10.0627C7.006 9.26965 7.25408 8.92267 7.94872 8.8731L27.5474 7.73303C28.1924 7.68347 28.4901 8.08001 28.4901 8.8731V26.7176C28.4901 27.5107 28.3413 28.1551 27.2992 28.2047L8.54412 29.2952C7.50216 29.3943 7.006 28.9977 7.006 28.056ZM25.5131 11.0541C25.6123 11.5994 25.5131 12.1446 24.9673 12.1942L24.0742 12.3924V25.6767C23.2803 26.1228 22.5856 26.3211 21.9903 26.3211C21.0475 26.3211 20.7995 26.0237 20.0552 25.1314L14.1012 15.8126V24.7845L15.9866 25.2306C15.9866 25.2306 15.9866 26.3211 14.4981 26.3211L10.3303 26.569C10.2311 26.3211 10.3303 25.7262 10.7273 25.6271L11.8188 25.3297V13.4333L10.3303 13.2847C10.2311 12.7394 10.5288 11.9463 11.3723 11.8968L15.8378 11.5994L21.9903 21.0173V12.6899L20.4025 12.4916C20.3033 11.8471 20.7498 11.3515 21.3452 11.3019L25.5131 11.0541Z" fill="black"/>
<path d="M43.7694 22.6526V14.4739H43.9182L49.8227 22.6526H51.7081V10.6076H49.6242V18.7863H49.4754L43.571 10.6076H41.6855V22.6526H43.7694ZM57.5133 22.8014C60.2422 22.8014 61.8796 21.0169 61.8796 18.0428C61.8796 15.1183 60.1926 13.2843 57.5133 13.2843C54.7843 13.2843 53.147 15.0687 53.147 18.0428C53.0974 21.0169 54.7843 22.8014 57.5133 22.8014ZM57.5133 21.0665C56.0744 21.0665 55.2309 19.9759 55.2309 18.0428C55.2309 16.1592 56.0744 15.0191 57.5133 15.0191C58.9521 15.0191 59.7956 16.1096 59.7956 18.0428C59.746 19.9759 58.9521 21.0665 57.5133 21.0665ZM63.765 11.3016V13.5817H62.3261V15.2174H63.765V20.1742C63.765 21.9587 64.6084 22.6526 66.6924 22.6526C67.0893 22.6526 67.4862 22.6031 67.7839 22.5535V20.9673C67.5359 21.0169 67.387 21.0169 67.0893 21.0169C66.2458 21.0169 65.8489 20.6204 65.8489 19.7282V15.267H67.7839V13.6312H65.8489V11.3511H63.765V11.3016ZM69.0243 22.6526H71.1083V13.5321H69.0243V22.6526ZM70.0664 11.9955C70.7609 11.9955 71.3068 11.4502 71.3068 10.7563C71.3068 10.0623 70.7609 9.51709 70.0664 9.51709C69.3717 9.51709 68.8259 10.0623 68.8259 10.7563C68.8259 11.4502 69.3717 11.9955 70.0664 11.9955ZM76.7646 22.8014C79.4935 22.8014 81.1309 21.0169 81.1309 18.0428C81.1309 15.1183 79.4439 13.2843 76.7646 13.2843C74.0356 13.2843 72.3983 15.0687 72.3983 18.0428C72.3487 21.0169 74.0356 22.8014 76.7646 22.8014ZM76.7646 21.0665C75.3257 21.0665 74.4822 19.9759 74.4822 18.0428C74.4822 16.1592 75.3257 15.0191 76.7646 15.0191C78.2035 15.0191 79.0469 16.1096 79.0469 18.0428C78.9974 19.9759 78.2035 21.0665 76.7646 21.0665ZM82.3713 22.6526H84.4552V17.2993C84.4552 15.961 85.2491 15.1183 86.4398 15.1183C87.6803 15.1183 88.2756 15.8122 88.2756 17.2001V22.6031H90.3596V16.7044C90.3596 14.5234 89.268 13.2843 87.2337 13.2843C85.8941 13.2843 84.9514 13.9286 84.5049 14.92H84.3559V13.5321H82.3713V22.6526Z" fill="black"/>
</g>
</g>
</g>
<defs>
<clipPath id="clip0_826_22937">
<rect width="90.18" height="32" fill="white" transform="translate(0.849609)"/>
</clipPath>
<clipPath id="clip1_826_22937">
<rect width="90.18" height="31.9994" fill="white" transform="translate(0.849609 0.000244141)"/>
</clipPath>
</defs>
</svg>
